<?xml version="1.0" encoding="UTF-8" standalone="no"?>
<!-- Created with Inkscape (http://www.inkscape.org/) -->

<svg
   width="140mm"
   height="25.508106mm"
   viewBox="0 0 140 25.508105"
   version="1.1"
   id="svg4308"
   inkscape:version="1.2.2 (b0a8486541, 2022-12-01)"
   sodipodi:docname="Meerhof_Schriftzug.svg"
   inkscape:export-filename="C:\Users\pet03103\owncloud\Postdoc\privat\Klassengeist\_Logos\Meerhof_Schriftzug.png"
   inkscape:export-xdpi="600"
   inkscape:export-ydpi="600"
   xmlns:inkscape="http://www.inkscape.org/namespaces/inkscape"
   xmlns:sodipodi="http://sodipodi.sourceforge.net/DTD/sodipodi-0.dtd"
   xmlns="http://www.w3.org/2000/svg"
   xmlns:svg="http://www.w3.org/2000/svg">
  <sodipodi:namedview
     id="namedview4310"
     pagecolor="#ffffff"
     bordercolor="#666666"
     borderopacity="1.0"
     inkscape:pageshadow="2"
     inkscape:pageopacity="0.0"
     inkscape:pagecheckerboard="0"
     inkscape:document-units="mm"
     showgrid="false"
     inkscape:zoom="2.0737236"
     inkscape:cx="104.40157"
     inkscape:cy="112.8405"
     inkscape:window-width="2560"
     inkscape:window-height="1369"
     inkscape:window-x="1912"
     inkscape:window-y="-8"
     inkscape:window-maximized="1"
     inkscape:current-layer="layer1"
     fit-margin-top="0"
     fit-margin-left="0"
     fit-margin-right="0"
     fit-margin-bottom="0"
     inkscape:showpageshadow="0"
     inkscape:deskcolor="#d1d1d1" />
  <defs
     id="defs4305" />
  <g
     inkscape:label="Ebene 1"
     inkscape:groupmode="layer"
     id="layer1"
     transform="translate(-55.11847,-50.721552)">
    <g
       id="g4525"
       transform="matrix(1.847585,0.63629685,-0.63629685,1.847585,-108.07891,-266.41844)">
      <path
         d="m 156.62251,122.03224 c -7e-4,-0.002 -7e-4,-0.003 -0.001,-0.004 l 0.001,0.004 v 7.1e-4 m 35.59861,-7.67985 1.01953,2.95522 -3.07905,1.06292 -3.20922,-9.29852 0.92146,-0.31785 2.15829,-0.74472 3.6188,-1.24883 1.13382,3.28612 -0.1785,0.0614 c -0.061,-0.0614 -0.11853,-0.13052 -0.16581,-0.2032 -0.012,-0.0169 -0.20355,0.18345 -0.30056,0.16158 -0.41805,-0.0921 -1.08515,0.0466 -1.36561,-0.0769 -0.6103,-0.26882 -1.06045,-0.71896 -1.86654,0.0632 0.84984,-0.18345 1.29046,0.0286 1.12395,0.14252 -0.0815,0.0557 -0.62442,0.20249 -0.76941,0.24165 -0.34714,0.0935 -0.88195,-0.51823 -1.67958,0.45755 0.0741,0.0307 0.83291,-0.39052 1.0541,-0.0247 0.21943,0.36513 -1.34584,0.33796 -1.46861,1.01741 0.76976,-0.40216 0.84914,-0.21025 0.8643,-0.14005 0.084,0.38982 -0.58631,0.98425 -0.58631,0.98425 0,0 0.67874,-0.0663 0.93521,-0.6163 0.9144,-1.96145 3.14325,-1.58609 3.44594,-1.4979 -0.0169,0.0945 0.11394,0.58138 -1.26436,0.57362 -1.37795,-0.007 0.35525,0.5909 1.41605,0.0441 0.024,-0.012 0.0476,-0.0254 0.0702,-0.0392 l 0.77894,2.25707 z m -6.3366,5.9189 c -2.21826,0.76553 -4.8133,-0.88406 -5.77497,-3.67171 -0.96273,-2.78835 0.0624,-5.68713 2.28071,-6.45266 2.21827,-0.76552 4.81259,0.88442 5.77497,3.67277 0.96167,2.7873 -0.0624,5.68608 -2.28071,6.4516 m -5.9503,1.62878 -1.60443,0.55351 -0.43462,0.14993 -0.0258,-0.0748 0.27376,-0.51012 -1.71133,-4.95935 -0.17145,0.0593 0.10266,0.29775 -0.30445,0.39264 -0.49036,-0.11536 -0.10371,-0.30022 -0.17463,0.06 1.71662,4.97558 0.54575,0.21343 0.0247,0.0709 -0.48613,0.16792 -1.60443,0.55351 -1.45838,0.50342 -3.20852,-9.29817 3.06211,-1.05692 0.90629,2.62502 1.23895,-0.42757 -0.90593,-2.62502 3.06176,-1.05692 3.20851,9.29852 z m -10.03723,3.46357 -0.63289,0.21837 -2.24049,-5.76333 0.49178,-0.16969 -0.0452,-0.13052 c 0.90064,-0.23213 1.61643,-0.80434 1.64218,-0.80681 0.0236,-0.001 -0.9712,0.23919 -1.7205,0.57962 l -0.0579,-0.16793 -0.65264,0.22331 -0.0617,0.0233 c -0.036,0.0124 -0.0684,0.0296 -0.0967,0.0505 -0.39264,-1.0414 -1.39629,-1.77659 -1.40582,-1.80446 -0.01,-0.0282 0.7112,1.29752 1.33703,1.86761 -0.0624,0.0769 -0.084,0.17815 -0.0836,0.27587 0.061,0.0953 0.12594,0.1517 0.23037,0.17004 -0.52141,1.03082 -0.29528,2.34738 -0.30869,2.37525 -0.0138,0.0279 0.46885,-1.54552 0.38524,-2.37172 0.048,0.004 0.0801,7e-4 0.12876,-0.0159 l 1.8662,5.86917 -0.28223,0.0974 -1.96885,0.67945 -0.75247,-2.18052 c 0.25611,-0.18309 0.3937,-0.39511 0.33584,-0.56303 -0.0575,-0.16687 -0.29739,-0.24942 -0.61136,-0.23601 l -1.26542,-3.66642 c 0.35701,-0.0134 0.6664,-0.0427 0.57291,-0.10619 -0.0945,-0.0642 -0.3817,-0.17074 -0.6992,-0.25999 l -0.78881,-2.286 3.47556,-1.19945 0.004,0.0123 c 0.0854,-0.0384 0.17321,-0.0737 0.26423,-0.10513 1.65417,-0.57079 3.4738,0.33091 4.05271,2.00731 0.57044,1.65382 -0.27587,3.45969 -1.88736,4.05624 2.1216,1.21779 4.67607,1.9812 4.67607,1.9812 z m -10.28313,3.54894 -0.7313,-2.11949 c 0.11324,-0.14287 0.15734,-0.31362 0.10371,-0.46849 -0.0536,-0.15522 -0.19332,-0.26246 -0.37077,-0.30515 l -0.56797,-1.64677 0.15275,0.0917 0.097,-0.12736 -0.3309,-0.19967 -0.16828,-0.48683 0.76165,0.25294 0.066,-0.14181 -0.89182,-0.29704 -0.10372,-0.30092 1.15147,0.12911 0.0321,-0.14922 -1.2386,-0.1397 -0.0766,-0.22084 1.35925,-0.121 -0.005,-0.14958 -1.40441,0.12453 -0.0639,-0.18591 1.39735,-0.40958 -0.0434,-0.12841 -1.403,0.39652 -0.0617,-0.17956 1.28553,-0.66957 -0.0741,-0.13018 -1.26083,0.65617 -0.0691,-0.19897 1.04387,-0.84173 -0.10478,-0.11006 -0.9913,0.8001 -0.0878,-0.25436 0.7052,-0.85795 -0.13017,-0.085 -0.63395,0.77188 -0.13017,-0.37712 0.31856,-0.62089 -0.14958,-0.0561 -0.24024,0.47025 -0.34961,-1.01247 6.34155,-2.18828 0.69003,1.99919 c -0.15699,-0.0247 -0.29633,-0.0342 -0.39335,-0.0198 -0.39158,0.0582 -0.7246,1.33068 -0.93274,1.24813 -0.20885,-0.0822 -1.18851,-0.38806 -1.46438,-0.29281 -0.27623,0.0953 -0.79941,1.4859 -0.79941,1.4859 l 1.01213,-1.01811 0.97049,0.12805 -0.0977,0.23954 0.0409,0.19191 0.11324,-0.11677 c 0,0 0.14428,-0.1778 0.27587,-0.1718 0.13018,0.006 0.50588,-0.17463 0.50588,-0.17463 l 0.27588,-0.0187 0.0822,-0.28575 -0.32314,0.0349 0.54575,-0.72954 c 0,0 0.15416,0.002 0.36159,10e-4 l 1.28799,3.73274 c -0.30762,0.0233 -0.62371,0.1083 -0.82373,0.26705 -0.28399,-0.52352 -1.43934,-0.52246 -1.74167,0.39935 -0.75,-0.49742 -1.3529,0.65052 -1.12112,0.79869 -0.73519,0.21131 -0.68263,1.21849 0.20708,0.8135 0.79798,-0.0504 2.71392,-0.73977 3.77013,-1.43721 l 0.76694,2.22285 z m -6.89221,2.37843 -3.20887,-9.29852 5.45218,-1.88136 0.88935,-0.30692 c 0.1203,0.34925 0.2219,0.64312 0.30798,0.89288 l -0.3039,1.19362 c -0.0226,-10e-4 -0.0455,-3.5e-4 -0.0688,-3.5e-4 l 0.0261,-1.9103 -0.1651,0.01 -0.0261,1.91947 c -0.0215,0.004 -0.0441,0.009 -0.066,0.0138 l -0.43251,-1.85314 -0.16122,0.0416 0.43498,1.86302 c -0.0448,0.0187 -0.0882,0.0395 -0.13053,0.0624 l -1.02658,-1.63477 -0.14535,0.0815 1.03364,1.64535 c -0.0159,0.0113 -0.0307,0.0236 -0.0452,0.0356 l -1.41958,-1.37724 -0.12347,0.10759 1.42699,1.38536 c -0.0116,0.0134 -0.0233,0.0272 -0.0335,0.0409 l -1.74872,-1.04951 -0.097,0.12841 1.75612,1.05304 c -0.008,0.0148 -0.0166,0.0289 -0.0236,0.0434 l -1.9946,-0.66287 -0.0663,0.14182 1.99884,0.66463 c -0.005,0.0148 -0.0102,0.0296 -0.0138,0.0452 l -2.14136,-0.24201 -0.0321,0.15029 2.141,0.24095 c -0.001,0.0159 -0.004,0.0307 -0.005,0.0462 l -2.18016,0.19332 0.005,0.15063 2.17276,-0.19261 c 10e-4,0.0155 0.002,0.0307 0.004,0.0469 l -2.10503,0.61665 0.0402,0.14358 2.09268,-0.61313 c 0.004,0.0155 0.009,0.0321 0.0145,0.0483 l -1.9244,1.00225 0.0737,0.12982 1.90747,-0.99342 c 0.009,0.0173 0.0176,0.0332 0.0265,0.0494 l -1.64783,1.32891 0.10442,0.10936 1.62878,-1.31304 c 0.0138,0.0162 0.0275,0.0328 0.042,0.048 l -1.29646,1.57762 0.12947,0.0854 1.27917,-1.55751 c 0.019,0.0155 0.0384,0.0303 0.0586,0.0444 l -0.89182,1.73884 0.14958,0.0554 0.87877,-1.71415 c 0.0254,0.0123 0.0508,0.0236 0.0765,0.0342 l -0.46002,1.80869 0.16192,0.0236 0.45297,-1.784 c 0.031,0.007 0.0621,0.0138 0.0931,0.0183 l -0.024,1.79035 0.1651,-0.01 0.0243,-1.76918 c 0.0342,0 0.0695,-7.1e-4 0.10477,-0.004 l 0.39441,1.69333 0.16228,-0.0416 -0.39194,-1.68025 c 0.0346,-0.008 0.0691,-0.018 0.10372,-0.0296 0.0325,-0.0113 0.0642,-0.0243 0.0949,-0.0378 l 0.91545,1.45694 0.14535,-0.0815 -0.91334,-1.45483 c 0.031,-0.0208 0.0617,-0.0427 0.0914,-0.0649 l 1.11548,1.08266 c 0.12383,0.35877 0.26388,0.76447 0.42157,1.22202 -0.30692,0.0229 -0.62371,0.10795 -0.82338,0.2667 -0.28434,-0.52317 -1.43969,-0.52211 -1.74202,0.39935 -0.74895,-0.49742 -1.3529,0.65087 -1.12113,0.79868 -0.73554,0.21167 -0.68262,1.2185 0.20779,0.81351 0.79728,-0.0501 2.56399,-0.91722 3.83399,-1.24848 l 0.70203,2.03447 z m -2.40136,0.82867 -0.93945,-2.72132 -1.778,-2.47368 0.43639,3.15066 0.5027,1.45591 -2.63242,0.90876 -0.0332,1.21355 -1.51977,0.52423 -3.20887,-9.29852 5.42537,2.32798 2.45357,-5.04683 3.20887,9.29816 z m 5.98895,-10.12173 c -0.0215,-0.01 -0.043,-0.0198 -0.0656,-0.0289 l 0.21343,-0.41698 c 0.0247,0.072 0.0466,0.13441 0.0649,0.18768 z m 0.3115,0.0282 c -3.5e-4,-0.001 0,0 -3.5e-4,-0.002 l -0.11713,0.0942 c -0.0183,-0.0152 -0.0384,-0.0293 -0.0582,-0.0427 l 0.13547,-0.1658 c 0.024,0.0692 0.0349,0.10089 0.0399,0.1143 l 3.5e-4,10e-4 c -3.5e-4,-7.1e-4 0,7e-4 0,3.5e-4 m 0.64911,1.88137 c 0.0596,0.17216 0.12454,0.36089 0.19544,0.56621 l -0.87559,-0.8502 c 0.0243,-0.0265 0.048,-0.054 0.0705,-0.0819 z m -0.16862,-0.48895 c 0.0275,0.0804 0.0568,0.16439 0.0875,0.25364 l -0.44027,-0.26382 c 0.0169,-0.03 0.0325,-0.0607 0.0462,-0.0917 z m -0.21767,-0.58068 0.0169,-0.001 c 0.0102,0.03 0.0215,0.0624 0.0328,0.0949 l -0.0483,-0.006 c 0.001,-0.0293 0.001,-0.0586 -0.001,-0.0882 m 0.10478,0.25365 c 0.0155,0.0448 0.0321,0.0924 0.049,0.14217 l -0.18944,-0.0639 c 0.009,-0.03 0.0155,-0.0607 0.0208,-0.0917 z m -0.31574,-0.91546 c 0.008,0.0243 0.0176,0.0511 0.0286,0.0829 l -0.0353,0.0183 c -0.0152,-0.0191 -0.0317,-0.0374 -0.0494,-0.0557 z m -0.0511,-0.14817 c 3.5e-4,0.002 0.001,0.005 0.001,0.004 3.5e-4,7.1e-4 0.001,0.002 0.001,0.003 l -0.001,-0.004 c -3.5e-4,-0.001 -7e-4,-0.002 -0.001,-0.004 0,-3.5e-4 -3.5e-4,-3.5e-4 -3.5e-4,-3.5e-4 h 3.5e-4 c -3.5e-4,0 -3.5e-4,0 0,3.5e-4 z m -0.23565,-0.68262 -0.29493,0.57538 c -0.0222,-0.005 -0.0459,-0.0106 -0.0695,-0.0145 l 0.23672,-0.93027 c 0.0487,0.1404 0.091,0.26317 0.1277,0.36935 m 41.06968,-10.74455 2.09233,-7.67256 -6.03109,2.07927 -1.88595,0.65017 -0.0575,0.0201 -1.19204,0.41063 -0.56197,0.19403 -3.34681,1.15358 -1.51553,0.52247 -0.61877,0.21343 -0.99201,0.34184 -1.03611,0.35736 -38.19066,13.16602 -0.56304,0.19403 -1.40652,0.48472 -1.88525,0.64981 -0.51011,0.17604 -1.15535,0.39829 -6.78039,2.3375 6.3754,4.75262 -2.12831,7.56709 7.3593,-2.53683 49.96674,-17.22578 10.40306,-3.58634 z m -12.49892,3.48682 -0.14429,0.17286 -0.1397,0.50448 -0.16404,0.01 c 0.009,-0.0303 0.018,-0.0586 0.0268,-0.0857 0.061,-0.19685 -0.15593,-0.66499 -0.20496,-0.80645 -0.0483,-0.14076 -0.51753,-0.59126 -0.73625,-0.84879 -0.21872,-0.25788 0.0907,-0.48754 0.0907,-0.48754 l 0.73872,-0.43039 -0.80786,0.0162 c 0,0 -0.1143,-0.0653 -0.25259,-0.0882 -0.13688,-0.0226 -0.34008,-0.0229 -0.62653,0.11113 -0.28681,0.13441 -0.23284,0.29034 -0.32209,0.61948 -0.0903,0.32914 0.31609,0.43391 0.31609,0.43391 0,0 0.0984,0.0713 -0.0254,0.57009 -0.12383,0.49777 -0.0349,1.18569 0.003,1.34797 0.0367,0.16227 0.3489,0.42298 0.25824,0.80398 -0.0893,0.38241 0.80645,1.264 0.80645,1.264 0,0 -0.0744,-0.37712 -0.007,-0.50482 0.0656,-0.12806 0.22966,0.078 0.35066,0.21201 0.11959,0.133 0.036,0.37289 0.0896,0.52882 0.054,0.15698 0.23072,1.04281 0.23072,1.04281 l 0.17286,-0.51611 0.13512,0.28645 0.008,-0.35278 0.17498,0.28999 c 0,0 0.0557,-0.26459 -0.0448,-0.93028 -0.0998,-0.66675 -0.22719,-0.49988 -0.48295,-0.92004 -0.25612,-0.42051 -0.11183,-0.69709 -0.0614,-0.92569 0.0318,-0.14005 0.0758,-0.30445 0.11959,-0.45579 l 0.24588,0.0148 0.2346,0.35701 -0.10724,-0.57644 0.0794,-0.4131 z"
         style="fill:#23713f;fill-opacity:1;fill-rule:nonzero;stroke:none;stroke-width:0.352778"
         id="path1930"
         sodipodi:nodetypes="cccccccccccccccccccccccccccccccccsccccccccccccccccccccccccccccccccccccccccccccccccccsccsccccccccccccccccccccccccccccccccccccccccccccccccccccccccccccccccccccccccccccccccccccccccccccccccccccccccccccccccccccccccccccccccccccccccccccccccccccccccccccccccccccccccccccccccccccccccsccccccccccccccccccccccccccccccccccccccccccccccccccccccccccccccccccccccccccccccccccccccscccccccccccccc" />
      <path
         d="m 156.62248,122.03161 0.001,0.004 c -3.5e-4,-7.1e-4 -0.001,-0.002 -0.001,-0.003 0,0 0,0 0,-3.5e-4 m -0.001,-0.004 c 3.5e-4,10e-4 7.1e-4,0.003 0.001,0.004 z m 28.31642,-6.70701 -0.2346,-0.35701 -0.24588,-0.0148 c -0.0437,0.15134 -0.0878,0.31574 -0.11959,0.45579 -0.0505,0.22825 -0.19474,0.50518 0.0614,0.92569 0.25576,0.42016 0.38312,0.25329 0.48295,0.92004 0.10054,0.66569 0.0448,0.93028 0.0448,0.93028 l -0.17497,-0.28999 -0.008,0.35278 -0.13477,-0.28645 -0.17321,0.51611 c 0,0 -0.17674,-0.88582 -0.23072,-1.04281 -0.0536,-0.15593 0.03,-0.39582 -0.0896,-0.52917 -0.121,-0.1337 -0.28505,-0.33972 -0.35066,-0.21202 -0.067,0.12806 0.007,0.50518 0.007,0.50518 0,0 -0.89571,-0.88159 -0.80645,-1.264 0.0907,-0.38136 -0.22155,-0.64171 -0.25824,-0.80398 -0.0381,-0.16228 -0.127,-0.8502 -0.003,-1.34797 0.12382,-0.49882 0.0254,-0.57008 0.0254,-0.57008 0,0 -0.4064,-0.10478 -0.31609,-0.43392 0.0893,-0.32914 0.0353,-0.48542 0.32208,-0.61948 0.28646,-0.13406 0.48966,-0.1337 0.62654,-0.11148 0.13829,0.0229 0.25259,0.0885 0.25259,0.0885 l 0.80786,-0.0162 -0.73872,0.43039 c 0,0 -0.30938,0.22966 -0.0907,0.48754 0.21872,0.25753 0.68791,0.70803 0.7366,0.84878 0.0487,0.14147 0.26564,0.6096 0.20461,0.80645 -0.009,0.0272 -0.018,0.0554 -0.0268,0.0857 l 0.16404,-0.0102 0.1397,-0.50412 0.14429,-0.17321 -0.0462,0.24412 -0.0794,0.41275 z m -2.54776,-5.17384 c -2.21827,0.76553 -3.24344,3.66431 -2.28071,6.45266 0.96167,2.78765 3.55671,4.43724 5.77497,3.67171 2.21827,-0.76588 3.24238,-3.6643 2.28071,-6.4516 -0.96238,-2.78835 -3.55635,-4.43829 -5.77497,-3.67277 m -26.14644,11.82161 c 0.0226,0.009 0.0441,0.019 0.0656,0.0289 l 0.21273,-0.25823 c -0.0183,-0.0529 -0.0399,-0.11536 -0.0649,-0.18733 z m -1.71697,6.34788 c -0.89041,0.40535 -0.94333,-0.60183 -0.20779,-0.81315 -0.23177,-0.14816 0.37218,-1.2961 1.12113,-0.79869 0.30233,-0.92181 1.45768,-0.92286 1.74202,-0.39934 0.19967,-0.15875 0.51646,-0.24377 0.82338,-0.26705 -0.15769,-0.4572 -0.29774,-0.8629 -0.42157,-1.22167 l -1.11548,-1.08268 c -0.0296,0.0222 -0.0603,0.0441 -0.0914,0.0649 l 0.91369,1.45486 -0.14569,0.0815 -0.91546,-1.45733 c -0.0307,0.0138 -0.0624,0.0268 -0.0949,0.0378 -0.0342,0.012 -0.0691,0.0219 -0.10372,0.03 l 0.39194,1.67994 -0.16228,0.042 -0.39441,-1.69334 c -0.0353,0.003 -0.0705,0.004 -0.10477,0.004 l -0.0243,1.76918 -0.1651,0.01 0.024,-1.79035 c -0.031,-0.005 -0.0621,-0.0109 -0.0931,-0.0183 l -0.45297,1.78399 -0.16192,-0.024 0.46002,-1.80834 c -0.0258,-0.0106 -0.0512,-0.0219 -0.0765,-0.0342 l -0.87877,1.71414 -0.14958,-0.0557 0.89182,-1.73849 c -0.0201,-0.0141 -0.0395,-0.0289 -0.0586,-0.0444 l -1.27917,1.55751 -0.12947,-0.0854 1.29646,-1.57762 c -0.0145,-0.0152 -0.0282,-0.0318 -0.042,-0.048 l -1.62877,1.31268 -0.10443,-0.10936 1.64783,-1.32856 c -0.009,-0.0162 -0.0173,-0.0325 -0.0265,-0.0494 l -1.90747,0.99342 -0.0737,-0.12983 1.9244,-1.00223 c -0.006,-0.0162 -0.0102,-0.0328 -0.0145,-0.0483 l -2.09267,0.61313 -0.0402,-0.14358 2.10537,-0.61666 c -0.002,-0.0166 -0.003,-0.0314 -0.004,-0.0473 l -2.17276,0.19297 -0.005,-0.15064 2.18016,-0.19332 c 0.001,-0.0155 0.004,-0.0307 0.005,-0.0462 l -2.14101,-0.2413 0.0321,-0.14993 2.14137,0.24201 c 0.004,-0.0155 0.008,-0.0303 0.0137,-0.0451 l -1.99883,-0.66499 0.0663,-0.14182 1.9946,0.66287 c 0.007,-0.0145 0.0155,-0.0286 0.0236,-0.0434 l -1.75613,-1.05304 0.097,-0.12806 1.74872,1.04952 c 0.0106,-0.0138 0.0219,-0.0275 0.0335,-0.0409 l -1.42698,-1.38571 0.12347,-0.10725 1.41993,1.37689 c 0.0141,-0.0116 0.0289,-0.024 0.0448,-0.0356 l -1.03364,-1.64535 0.14535,-0.0815 1.02658,1.63512 c 0.0423,-0.0229 0.0857,-0.0438 0.13053,-0.0624 l -0.43498,-1.86302 -5.45218,1.88137 3.20887,9.29851 6.34118,-2.18864 -0.70203,-2.03447 c -1.27,0.33162 -3.03671,1.19839 -3.83399,1.24848 m 20.59411,-15.16132 0.90593,2.62502 -1.23895,0.42792 -0.90629,-2.62537 -3.06211,1.05692 3.20852,9.29852 1.45838,-0.50342 1.60443,-0.55351 0.48613,-0.16792 -0.0247,-0.0713 -0.54575,-0.21308 -1.71627,-4.97557 0.17428,-0.06 0.10371,0.30021 0.49036,0.11536 0.3048,-0.393 -0.10265,-0.29739 0.17109,-0.0593 1.71133,4.959 -0.27376,0.51047 0.0258,0.0748 0.43462,-0.14993 1.60443,-0.55386 1.45697,-0.50271 -3.20851,-9.29852 z m -4.11127,4.82494 c -0.57891,-1.6764 -2.39854,-2.5781 -4.05271,-2.0073 -0.091,0.0314 -0.17886,0.0667 -0.26423,0.10512 l -0.004,-0.0127 -3.47556,1.19945 0.78881,2.28635 c 0.3175,0.0892 0.60466,0.19579 0.6992,0.26 0.0938,0.0635 -0.2159,0.0928 -0.57291,0.10583 l 1.26542,3.66677 c 0.31397,-0.0138 0.55386,0.0691 0.61136,0.23601 0.0579,0.16792 -0.0797,0.37994 -0.33549,0.56303 l 0.75212,2.18052 1.96885,-0.67945 0.28223,-0.0974 -1.8662,-5.86951 c -0.0487,0.0169 -0.0808,0.0201 -0.12876,0.0162 0.0836,0.82621 -0.39899,2.39959 -0.38524,2.37137 0.0134,-0.0279 -0.21272,-1.34443 0.30869,-2.3749 -0.10443,-0.0187 -0.16934,-0.0748 -0.23037,-0.17004 -3.5e-4,-0.0977 0.0212,-0.19896 0.0836,-0.27587 -0.62583,-0.57009 -1.34691,-1.89583 -1.33703,-1.86796 0.01,0.0279 1.01318,0.76342 1.40582,1.80481 0.0282,-0.0208 0.0607,-0.0381 0.0967,-0.0504 l 0.0617,-0.0233 0.65264,-0.22331 0.0579,0.16757 c 0.7493,-0.34008 1.74414,-0.58068 1.7205,-0.57962 -0.0254,0.003 -0.74154,0.57468 -1.64218,0.8068 l 0.0452,0.13089 -0.49178,0.16968 2.24049,5.76332 0.63289,-0.21837 3.90137,-1.34655 c 0,0 -2.55447,-0.7634 -4.67607,-1.98084 1.61149,-0.59654 2.4578,-2.40241 1.88736,-4.05624 m 23.8185,-4.52719 -0.77894,-2.25707 c -0.0226,0.0138 -0.0462,0.0268 -0.0702,0.0391 -1.0608,0.54681 -2.794,-0.0511 -1.41605,-0.0441 1.3783,0.008 1.24777,-0.47908 1.26436,-0.57362 -0.30269,-0.0882 -2.53154,-0.46355 -3.44594,1.49789 -0.25647,0.54998 -0.93521,0.61631 -0.93521,0.61631 0,0 0.67028,-0.59443 0.58631,-0.98425 -0.0152,-0.0705 -0.0945,-0.26212 -0.8643,0.14005 0.12277,-0.67945 1.68839,-0.65229 1.46861,-1.01777 -0.22084,-0.36547 -0.98001,0.0557 -1.0541,0.025 0.79763,-0.97578 1.3328,-0.36442 1.67958,-0.4579 0.14499,-0.0388 0.68791,-0.18592 0.76976,-0.2413 0.16616,-0.11395 -0.27446,-0.32632 -1.1243,-0.14288 0.80609,-0.78175 1.25624,-0.33161 1.86654,-0.0628 0.28046,0.12312 0.94756,-0.0152 1.36561,0.0766 0.0974,0.0222 0.28892,-0.17815 0.30056,-0.16122 0.0473,0.0727 0.10478,0.14182 0.16581,0.2032 l 0.1785,-0.0617 -1.13382,-3.28612 -3.6188,1.24883 -2.15829,0.74507 -0.92146,0.31785 3.20922,9.29852 3.07905,-1.06292 -1.01953,-2.95522 z m -39.26946,8.46949 c 0.0219,-0.004 0.0444,-0.009 0.066,-0.0134 l 0.0261,-1.91947 0.1651,-0.01 -0.0261,1.91029 c 0.0233,0 0.0466,-7e-4 0.0688,3.6e-4 l 0.30374,-1.1938 c -0.0861,-0.24977 -0.18768,-0.54363 -0.30798,-0.89253 l -0.88935,0.30692 0.16122,-0.042 z m -8.98561,5.28495 -5.42537,-2.32798 3.20887,9.29852 1.51977,-0.52458 0.0332,-1.21356 2.63243,-0.9084 -0.50271,-1.45627 -0.43639,-3.1503 1.778,2.47332 0.93945,2.72168 1.91523,-0.6611 -3.20887,-9.29816 z m 14.84525,-1.26894 c -0.88971,0.40499 -0.94227,-0.60219 -0.20708,-0.81351 -0.23178,-0.14816 0.37147,-1.29609 1.12148,-0.79904 0.30197,-0.92145 1.45732,-0.9225 1.74131,-0.39898 0.20002,-0.1591 0.51611,-0.24377 0.82409,-0.26705 l -1.28835,-3.73274 c -0.20743,0.001 -0.36159,-10e-4 -0.36159,-10e-4 l -0.54575,0.72955 0.32314,-0.0349 -0.0822,0.28575 -0.27588,0.0187 c 0,0 -0.37571,0.18062 -0.50588,0.17427 -0.13159,-0.006 -0.27587,0.17216 -0.27587,0.17216 l -0.11324,0.11677 -0.0409,-0.19191 0.0977,-0.23954 -0.97049,-0.12841 -1.01212,1.01847 c 0,0 0.52352,-1.39065 0.7994,-1.4859 0.27587,-0.0952 1.25553,0.21061 1.46438,0.2928 0.20814,0.0826 0.54116,-1.18992 0.93274,-1.24812 0.097,-0.0145 0.23636,-0.005 0.39335,0.0194 l -0.69003,-1.9992 -6.34154,2.18864 0.3496,1.01247 0.24025,-0.47025 0.14957,0.0561 -0.31856,0.62089 0.13018,0.37676 0.63394,-0.77187 0.13018,0.0854 -0.70521,0.85796 0.0878,0.25435 0.99131,-0.80045 0.10477,0.11042 -1.04387,0.84173 0.0691,0.19896 1.26083,-0.65616 0.0741,0.12982 -1.28552,0.66993 0.0617,0.17956 1.40335,-0.39652 0.043,0.12805 -1.39735,0.40993 0.0639,0.18556 1.40441,-0.12417 0.005,0.14957 -1.35926,0.12065 0.0765,0.2212 1.23861,0.13934 -0.0321,0.14958 -1.15147,-0.12947 0.10372,0.30127 0.89182,0.29669 -0.066,0.14217 -0.76165,-0.2533 0.16828,0.48719 0.33125,0.19967 -0.0974,0.127 -0.15275,-0.0914 0.56797,1.64677 c 0.17745,0.0427 0.31715,0.14993 0.37077,0.3048 0.0536,0.15522 0.01,0.32597 -0.10371,0.46884 l 0.7313,2.11914 6.34154,-2.18828 -0.76694,-2.22286 c -1.05621,0.69744 -2.97215,1.38677 -3.77013,1.43722 m -4.51768,-3.10162 -0.0169,10e-4 c 0.002,0.0296 0.002,0.0589 0.001,0.0882 l 0.0483,0.006 c -0.0113,-0.0328 -0.0226,-0.0649 -0.0328,-0.0949 m -0.80996,-0.91673 0.29492,-0.57538 c -0.0367,-0.10618 -0.079,-0.22895 -0.12771,-0.36971 l -0.23671,0.93063 c 0.0236,0.004 0.0473,0.009 0.0695,0.0145 m 0.75706,1.24919 0.18944,0.0639 c -0.0169,-0.0498 -0.0335,-0.0974 -0.049,-0.14253 l -0.11959,-0.0131 c -0.005,0.031 -0.012,0.0617 -0.0208,0.0917 m -0.0995,0.23848 0.44027,0.26352 c -0.0307,-0.0893 -0.0596,-0.17286 -0.0875,-0.25329 l -0.30657,-0.10195 c -0.0138,0.0307 -0.0293,0.0614 -0.0462,0.0917 m -0.12594,-1.37654 c 3.5e-4,7e-4 -3.5e-4,-0.002 -0.001,-0.004 v 0 c 3.5e-4,10e-4 7.1e-4,0.002 0.001,0.004 m -0.002,-0.007 c 3.5e-4,10e-4 0,3.5e-4 3.5e-4,10e-4 0,3.5e-4 -3.5e-4,-7.1e-4 0,-3.5e-4 z m -0.0307,1.59914 0.8756,0.8502 c -0.0709,-0.20567 -0.13582,-0.39406 -0.19544,-0.56621 l -0.6096,-0.36619 c -0.0226,0.0282 -0.0462,0.0554 -0.0705,0.0822 m 0.0318,-1.59561 -3.6e-4,-7.1e-4 c -3.5e-4,-0.001 -7e-4,-0.002 -3.5e-4,-0.001 3.5e-4,0.001 3.5e-4,7.1e-4 3.5e-4,0.001 v -3.5e-4 c 0,3.5e-4 3.6e-4,7.1e-4 3.6e-4,0.001 -3.6e-4,-7e-4 -3.6e-4,-3.5e-4 0,-3.5e-4 z m -0.17604,0.0476 c 0.0194,0.0138 0.0395,0.0279 0.0579,0.043 l 0.11712,-0.0942 c -0.005,-0.0134 -0.0159,-0.0452 -0.0399,-0.1143 z m 0.1711,0.14605 c 0.0176,0.018 0.0342,0.0367 0.0494,0.0554 l 0.0353,-0.018 c -0.0109,-0.0318 -0.0201,-0.0586 -0.0286,-0.0829 z"
         style="fill:#fdd91c;fill-opacity:1;fill-rule:nonzero;stroke:none;stroke-width:0.352778"
         id="path1934" />
    </g>
  </g>
</svg>
